HIERARCHY
ROOT Hips
{
	OFFSET -14.64140 90.27770 -84.91600
	CHANNELS 6 Xposition Yposition Zposition Zrotation Xrotation Yrotation
	JOINT Spine
	{
		OFFSET 0.00000 13.20850 -1.60436
		CHANNELS 3 Zrotation Xrotation Yrotation
		JOINT Spine1
		{
			OFFSET 0.00000 8.61716 0.00000
			CHANNELS 3 Zrotation Xrotation Yrotation
			JOINT Spine2
			{
				OFFSET 0.00000 8.61717 0.00000
				CHANNELS 3 Zrotation Xrotation Yrotation
				JOINT Spine3
				{
					OFFSET 0.00000 8.61717 0.00000
					CHANNELS 3 Zrotation Xrotation Yrotation
					JOINT Neck
					{
						OFFSET 0.00000 11.07920 1.10792
						CHANNELS 3 Zrotation Xrotation Yrotation
						JOINT Neck1
						{
							OFFSET 0.00000 7.08032 0.00000
							CHANNELS 3 Zrotation Xrotation Yrotation
							JOINT Head
							{
								OFFSET 0.00000 7.08031 0.00000
								CHANNELS 3 Zrotation Xrotation Yrotation
								End site
								{
									OFFSET 0.00000 0.00000 0.00000
								}
							}
						}
					}
					JOINT RightShoulder
					{
						OFFSET -0.01000 7.91373 5.19711
						CHANNELS 3 Zrotation Xrotation Yrotation
						JOINT RightArm
						{
							OFFSET -18.41580 0.00000 0.00000
							CHANNELS 3 Zrotation Xrotation Yrotation
							JOINT RightForeArm
							{
								OFFSET -29.11090 0.00000 0.00000
								CHANNELS 3 Zrotation Xrotation Yrotation
								JOINT RightHand
								{
									OFFSET -24.65040 0.00000 0.00000
									CHANNELS 3 Zrotation Xrotation Yrotation
									JOINT RightHandThumb1
									{
										OFFSET -5.35114 -0.85590 3.97906
										CHANNELS 3 Zrotation Xrotation Yrotation
										JOINT RightHandThumb2
										{
											OFFSET -4.52789 0.00000 0.00000
											CHANNELS 3 Zrotation Xrotation Yrotation
											JOINT RightHandThumb3
											{
												OFFSET -2.46976 0.00000 0.00000
												CHANNELS 3 Zrotation Xrotation Yrotation
												End site
												{
													OFFSET 0.00000 0.00000 0.00000
												}
											}
										}
									}
									JOINT RightHandIndex1
									{
										OFFSET -14.26970 0.00000 2.88139
										CHANNELS 3 Zrotation Xrotation Yrotation
										JOINT RightHandIndex2
										{
											OFFSET -5.48836 0.00000 0.00000
											CHANNELS 3 Zrotation Xrotation Yrotation
											JOINT RightHandIndex3
											{
												OFFSET -3.01859 0.00000 0.00000
												CHANNELS 3 Zrotation Xrotation Yrotation
												End site
												{
													OFFSET 0.00000 0.00000 0.00000
												}
											}
										}
									}
									JOINT RightHandMiddle1
									{
										OFFSET -14.26970 0.00000 -0.09147
										CHANNELS 3 Zrotation Xrotation Yrotation
										JOINT RightHandMiddle2
										{
											OFFSET -6.17441 0.00000 0.00000
											CHANNELS 3 Zrotation Xrotation Yrotation
											JOINT RightHandMiddle3
											{
												OFFSET -3.56743 0.00000 0.00000
												CHANNELS 3 Zrotation Xrotation Yrotation
												End site
												{
													OFFSET 0.00000 0.00000 0.00000
												}
											}
										}
									}
									JOINT RightHandRing1
									{
										OFFSET -12.69180 0.00000 -3.06433
										CHANNELS 3 Zrotation Xrotation Yrotation
										JOINT RightHandRing2
										{
											OFFSET -5.62556 0.00000 0.00000
											CHANNELS 3 Zrotation Xrotation Yrotation
											JOINT RightHandRing3
											{
												OFFSET -3.56744 0.00000 0.00000
												CHANNELS 3 Zrotation Xrotation Yrotation
												End site
												{
													OFFSET 0.00000 0.00000 0.00000
												}
											}
										}
									}
									JOINT RightHandPinky1
									{
										OFFSET -11.11390 0.00000 -6.03719
										CHANNELS 3 Zrotation Xrotation Yrotation
										JOINT RightHandPinky2
										{
											OFFSET -4.52789 0.00000 0.00000
											CHANNELS 3 Zrotation Xrotation Yrotation
											JOINT RightHandPinky3
											{
												OFFSET -2.46976 0.00000 0.00000
												CHANNELS 3 Zrotation Xrotation Yrotation
												End site
												{
													OFFSET 0.00000 0.00000 0.00000
												}
											}
										}
									}
								}
							}
						}
					}
					JOINT LeftShoulder
					{
						OFFSET 0.01000 7.91373 5.19711
						CHANNELS 3 Zrotation Xrotation Yrotation
						JOINT LeftArm
						{
							OFFSET 18.41580 0.00000 0.00000
							CHANNELS 3 Zrotation Xrotation Yrotation
							JOINT LeftForeArm
							{
								OFFSET 29.11090 0.00000 0.00000
								CHANNELS 3 Zrotation Xrotation Yrotation
								JOINT LeftHand
								{
									OFFSET 24.65040 0.00000 0.00000
									CHANNELS 3 Zrotation Xrotation Yrotation
									JOINT LeftHandThumb1
									{
										OFFSET 5.35114 -0.85590 3.97906
										CHANNELS 3 Zrotation Xrotation Yrotation
										JOINT LeftHandThumb2
										{
											OFFSET 4.52789 0.00000 0.00000
											CHANNELS 3 Zrotation Xrotation Yrotation
											JOINT LeftHandThumb3
											{
												OFFSET 2.46977 0.00000 0.00000
												CHANNELS 3 Zrotation Xrotation Yrotation
												End site
												{
													OFFSET 0.00000 0.00000 0.00000
												}
											}
										}
									}
									JOINT LeftHandIndex1
									{
										OFFSET 14.26970 0.00000 2.88139
										CHANNELS 3 Zrotation Xrotation Yrotation
										JOINT LeftHandIndex2
										{
											OFFSET 5.48836 0.00000 0.00000
											CHANNELS 3 Zrotation Xrotation Yrotation
											JOINT LeftHandIndex3
											{
												OFFSET 3.01859 0.00000 0.00000
												CHANNELS 3 Zrotation Xrotation Yrotation
												End site
												{
													OFFSET 0.00000 0.00000 0.00000
												}
											}
										}
									}
									JOINT LeftHandMiddle1
									{
										OFFSET 14.26970 0.00000 -0.09147
										CHANNELS 3 Zrotation Xrotation Yrotation
										JOINT LeftHandMiddle2
										{
											OFFSET 6.17440 0.00000 0.00000
											CHANNELS 3 Zrotation Xrotation Yrotation
											JOINT LeftHandMiddle3
											{
												OFFSET 3.56744 0.00000 0.00000
												CHANNELS 3 Zrotation Xrotation Yrotation
												End site
												{
													OFFSET 0.00000 0.00000 0.00000
												}
											}
										}
									}
									JOINT LeftHandRing1
									{
										OFFSET 12.69180 0.00000 -3.06433
										CHANNELS 3 Zrotation Xrotation Yrotation
										JOINT LeftHandRing2
										{
											OFFSET 5.62556 0.00000 0.00000
											CHANNELS 3 Zrotation Xrotation Yrotation
											JOINT LeftHandRing3
											{
												OFFSET 3.56744 0.00000 0.00000
												CHANNELS 3 Zrotation Xrotation Yrotation
												End site
												{
													OFFSET 0.00000 0.00000 0.00000
												}
											}
										}
									}
									JOINT LeftHandPinky1
									{
										OFFSET 11.11390 0.00000 -6.03719
										CHANNELS 3 Zrotation Xrotation Yrotation
										JOINT LeftHandPinky2
										{
											OFFSET 4.52789 0.00000 0.00000
											CHANNELS 3 Zrotation Xrotation Yrotation
											JOINT LeftHandPinky3
											{
												OFFSET 2.46976 0.00000 0.00000
												CHANNELS 3 Zrotation Xrotation Yrotation
												End site
												{
													OFFSET 0.00000 0.00000 0.00000
												}
											}
										}
									}
								}
							}
						}
					}
					JOINT pCube4
					{
						OFFSET 0.00000 10.91090 1.10792
						CHANNELS 3 Zrotation Xrotation Yrotation
						End site
						{
							OFFSET 0.00000 0.00000 0.00000
						}
					}
				}
			}
		}
	}
	JOINT RightUpLeg
	{
		OFFSET -9.98441 0.00000 0.00000
		CHANNELS 3 Zrotation Xrotation Yrotation
		JOINT RightLeg
		{
			OFFSET 0.00000 -42.11790 0.00000
			CHANNELS 3 Zrotation Xrotation Yrotation
			JOINT RightFoot
			{
				OFFSET 0.00000 -45.00020 -0.00001
				CHANNELS 3 Zrotation Xrotation Yrotation
				JOINT RightForeFoot
				{
					OFFSET 0.00000 -3.74820 0.00000
					CHANNELS 3 Zrotation Xrotation Yrotation
					JOINT RightToeBase
					{
						OFFSET 0.00000 0.06325 14.43120
						CHANNELS 3 Zrotation Xrotation Yrotation
						End site
						{
							OFFSET 0.00000 0.00000 0.00000
						}
					}
				}
			}
		}
	}
	JOINT LeftUpLeg
	{
		OFFSET 9.98441 0.00000 0.00000
		CHANNELS 3 Zrotation Xrotation Yrotation
		JOINT LeftLeg
		{
			OFFSET 0.00000 -42.11800 0.00000
			CHANNELS 3 Zrotation Xrotation Yrotation
			JOINT LeftFoot
			{
				OFFSET 0.00000 -45.00070 0.00000
				CHANNELS 3 Zrotation Xrotation Yrotation
				JOINT LeftForeFoot
				{
					OFFSET 0.00000 -3.74824 0.00000
					CHANNELS 3 Zrotation Xrotation Yrotation
					JOINT LeftToeBase
					{
						OFFSET 0.00000 0.06325 14.43110
						CHANNELS 3 Zrotation Xrotation Yrotation
						End site
						{
							OFFSET 0.00000 0.00000 0.00000
						}
					}
				}
			}
		}
	}
}
MOTION
Frames: 4
Frame Time: 0.050000
-0.008656520133688733 -0.00975131682419535 -0.014161114156524771 -0.047346622559277816 -0.044752101253579986 0.023721952327623624 3.4517770749966092 3.447215162851261 -1.917753205936338 -0.7903709288702795 3.490049515555383 0.36147188942214387 -0.6749591500769245 -0.8369810845089458 -0.2699482630700296 -0.1318361608084889 -0.023567330803083555 -0.49071295184106795 -0.08715386818748679 11.869015000631828 -0.8423535166950217 0.3093074626724877 -0.43299833580249947 -1.6324908026935143 0.6131644975490059 -16.363075717336162 -0.16125237936239423 -7.635391019724522 3.0030700178993848 -16.117464439781234 77.61415487997799 5.614575913911233 9.809163383482975 6.02699940304859 1.5061759421678076 96.90728918328088 3.4635451745213994 0.01895462714067999 -0.020308843159489172 4.501850461063908 -0.13653314195606742 -1.6116280307163815 -0.015721997656945392 0.011756546521047254 -56.19886345253426 -0.04167211711330804 0.012513129680853476 -56.24862795205353 -38.78463975472914 -0.0488834621308977 -0.029939188368001086 0.03176453454372924 0.042112641207967386 -0.03735285902828695 -0.015891370236290177 0.03743995976356321 -0.008922979329284387 -36.67614429145129 0.043657144567707674 -0.008876037796020083 0.041107838826425366 0.0469818669304293 -0.010221255508352279 0.014455089282574182 -0.04314219912255736 -0.0032087650274852616 -19.76738164496817 0.016048657343753592 -0.00507121183117889 -0.01180454611824463 0.011410813779332889 0.023443772419786253 -0.03656804736909641 -0.029893079992256145 0.004977198061678254 24.09292575761962 -0.020508954468427817 -0.0012854316488436137 28.910729331449843 -0.003770079931942503 0.026720535630656697 28.90771861398588 -0.008927760509044797 0.00464729415815116 8.689801188418413 2.2330880925379257 12.940697452359952 -72.46346167866153 27.268657256007245 -18.14114143838242 -17.929344550482387 1.473129511685229 -90.88122793262642 -10.413935959333461 -7.075136201093098 3.487021324451008 -0.4574551533742843 0.05010828033284147 -8.155746740791914 0.04830477913587528 -0.041590532548933634 44.52715760403376 -0.012722944574689312 0.008139121840912823 44.53151792745454 12.445339866959358 -0.03297832021420586 -0.04036948569227164 -0.005378169839664389 0.013283990205763346 0.02593856900770009 -0.004678617245660507 0.021736005323235396 0.015813042957759146 11.110677637539712 0.04276049633146213 -0.02725899541184073 -0.003533651341271495 0.041123163667235986 -0.02376354437234474 0.008168662635163141 0.047971094852311054 -0.0021634750622726824 4.821027614527265 -0.0031957691375215404 -0.04161938557748841 -0.019998079036121153 -0.0048719850335115665 -0.034553906565566915 0.018446633523830688 0.009928042537900235 -0.041365107186609254 -5.646921165416788 0.017777926523736772 0.015239121039901434 -6.68000679189038 -0.019789465878648407 0.044344293487389164 -6.735968588541064 0.005928689514403314 0.047304109153394766 0.016564306432262598 0.031249953149456035 -0.042474144377461276 8.014862101408731 3.48177183249201 -19.265977587191742 0.04611196667991947 10.399752019287126 -0.004195042422427461 -5.591547983024339 -15.612699522484549 3.177642632196604 -0.041232785637841655 -0.005481988045932583 0.01529172328261144 0.023049181889612438 4.686299606111643 0.02444126025756114 12.483397854954243 -8.212123614409077 6.923118133142709 -0.03845723379586975 46.40640320115412 0.006352338893663523 -4.31702383939396 -14.717073411359683 -3.842102937225469 -0.008662819348028657 0.006805686429004068 0.014230198811392843 0.022021906666979892 -10.744393898325562 -0.028347199213914393 
0.03483795915326964 -0.0034309149025561893 -0.044786895740571944 -0.03681429749644747 -0.042567820146018884 -0.031172925530962077 3.205924993090472 3.5665445026978047 -1.8522777345116093 -0.8051458024933661 3.498374804119379 0.38698773865090835 -0.6967292602876186 -0.7584859825915428 -0.261734768502411 -0.12937187250689672 -0.01928999106800533 -0.4979604177421063 -0.13560365389415646 11.661350307367941 -0.7662036161375984 0.335357581075147 -0.48718916412105506 -1.4669608460259955 0.5966278124565642 -16.37990695267208 -0.1693153631141728 -7.222917032767711 2.9372056268675157 -16.00410580912792 77.31313765535779 5.548153020963536 8.40896740118988 7.95723599442941 2.533552208365637 96.0017043796571 3.9936430263899223 -0.007320128625698775 -0.4687723098675747 4.543082635214778 -0.09794770884103741 -1.5889551937656807 0.023122827396405955 -0.003197761257744392 -56.218190870819946 -0.028686594393598948 -0.003923545714598074 -56.18800159042689 -38.81142559430188 0.004299858326499459 0.04950242585062157 0.0025606474434151038 -0.017740376711797564 0.02044341478950657 -0.013264786699848489 0.02658555066122106 0.04679355360932652 -36.7055728618033 -0.03734827013118671 0.03985638707102938 0.036224433810249215 0.01506010824679032 -0.004851225074918456 -0.00022092138434448994 -0.006462998167873821 0.009485367682977338 -19.73586540944001 0.026483875187325284 0.0029873600675598536 -0.014602678578716874 -0.005084202130777382 -0.023692117389491 -0.00475649007534123 -0.02697017868356949 0.044168441955495 24.090037982760304 0.047322392948286614 0.031121069055438585 28.857521891538628 -0.01259033373501445 0.033643665852022525 28.8950130115905 0.025867600840620415 -0.012421042703039262 8.435668566793272 2.166331446088221 12.932045704348013 -72.21594209739267 27.130640611871534 -17.257297333107378 -22.474987004089723 3.4649285558865928 -90.72645950971881 -11.93262603721726 -8.062595288078937 4.322332492638971 -0.47215756440970286 0.10400656531040456 -8.109473372901428 0.023145349833167402 0.025072374745963626 44.52551770024545 -0.023002496207294672 -0.04956336610792564 44.602640919464854 12.43659035707083 0.029156110384041294 -0.007883767216777035 -0.01782439751099625 0.031017520073653902 -0.021373563189526223 -0.02176684261522512 -0.005103987963859751 -0.006161316751223509 11.107072519049865 0.03479819853980102 0.004723594726061988 -0.011098930274552783 -0.029815062805910276 0.005643795533072478 0.005892950073190068 0.011282059782586914 0.029627619017743658 4.7837023421401605 0.042700415691879726 -0.003834012523785984 0.033472141459468537 -0.026983996588484428 0.04170659013854586 0.01721583759111648 -0.012149209804449418 -0.041464096430034916 -5.559694872522543 0.03452142186630686 -0.005099026116502621 -6.707533970382907 0.047575562551188694 -0.012081143096986378 -6.7570334245104995 0.03928095416604389 -0.04614449989358743 -0.03950899295546884 -0.014484533833247683 0.012065212218208714 8.07478460655618 3.457047007320987 -19.268893743259245 0.010130219414106677 10.378294893977671 -0.012564959441003339 -5.656252809717139 -15.69803871249865 3.1810670512930765 -0.015308590128648667 -0.044073631658985556 0.008542422436473837 -0.01747428309632984 4.676457799454621 0.0420108046752209 12.481134249642606 -8.272527512457877 6.873174012016317 -0.018959013930314784 46.41533375965793 0.011738451851167779 -4.33644231264274 -14.753236253252478 -3.8655655569984027 -0.002188856882455404 -0.0012704197731279604 -0.02174390921501873 -0.007447514456873953 -10.727822824663841 0.013609581468567692 
-0.0010067953638221898 0.0003584980452653565 0.042710900273764264 -0.03310880644115277 0.04671388173510835 -0.03222781973890331 3.0794998221405763 3.696426516259475 -1.8852852276912342 -0.8563039778467894 3.4964248833158864 0.4302200819306602 -0.6843233727198176 -0.7065392218028623 -0.31748784523913026 -0.13220702695370565 0.023363311148137167 -0.4824329282842795 -0.1621469181178903 11.475948879445554 -0.6079415131393892 0.29411355342676804 -0.5584746482285784 -1.3689302162015087 0.49887296644403495 -16.498584205023647 -0.15865189543079383 -6.829633438835186 2.849060152279905 -15.977078797114727 77.2737901904691 5.548594454039547 6.4560733874581 10.259307629589681 3.6987798529078617 93.30209961037679 5.011992009068742 -0.07331265009355031 -1.0224745745296437 4.574478117938805 -0.12686927937551626 -1.58337526453377 -0.003051253498954713 0.004077772713298451 -56.19086516291138 -0.008428706772211409 -0.02644771384240647 -56.250319268388004 -38.74092986990839 -0.030001267226494596 0.0075766524672822 -0.025296239190518932 0.038256967969678785 0.031745366062562445 -0.010854586943339264 0.01643644792817757 -0.005354774776859122 -36.73184716359155 -0.013843426935197198 0.0017663136099702503 -0.026300713079073938 0.0036294549812725292 -0.010909455299629053 -0.008714789224685679 0.019159815962700607 -0.023956027559116178 -19.764895524192838 0.033237516407840534 0.008284388808903356 0.00048380735875024533 -0.04219645496291648 0.04101629687255161 -0.0026793012320424 -0.046505761019805004 -0.03198388624361405 24.048403529936742 -0.015794959956429388 -0.048929894059694966 28.815670971261277 -0.04121801304462782 -0.036852410956922356 28.904900276719765 -0.037650644257452646 -0.0005600717092589885 8.133075803260954 2.1338682464269136 12.945926733797837 -72.27147168811324 26.62840275461666 -15.988174982917306 -27.08279218096904 5.2338667664614364 -89.44568717553223 -13.007300061132387 -8.43831900934969 4.863710421331052 -0.4508321564752863 0.04684460624486306 -8.153176983645029 0.01333207363905438 0.03803546938971683 44.6071080804692 0.02543296962999146 0.027144317621721575 44.586490574040006 12.442044797226858 -0.0061664380002933285 -0.019685279097073193 -0.011067649547787403 -0.04744922518022269 0.04624421632549344 -0.03461496380608351 -0.014567807997430487 -0.020862229098769496 11.097704613079788 -0.02143760311503473 -0.006534481448566068 -0.023277322066317843 0.04680781923046596 0.04485385459656497 -0.01800477028080692 -0.03945295907217447 0.03203146344432564 4.768587014673929 0.04415884087014577 0.036606069591580644 0.008866902142461554 -0.005002885943501985 0.0160794723485102 -0.04055578489271433 0.017319250681510162 0.03072367313469289 -5.57103794079849 -0.014514050854705092 0.03170957125753555 -6.736002129881312 -0.030936818105028345 0.031505456251623945 -6.768803418715984 0.011894200945868072 -0.018085561473228717 -0.010799527888602053 0.02257575058798584 -0.023035754375274907 8.092097624200548 3.500452282273692 -19.26522425843169 -0.03944582181123859 10.430203235619043 0.017936941355303 -5.643247955439364 -15.635769730020494 3.1930443543321014 -0.04207896424847798 0.01642401785215621 0.021594753780821603 -0.005537938857432613 4.668384023229724 0.013896444937475967 12.43477798391347 -8.220519545765216 6.9315071162003115 -0.02599597261390995 46.424378924776704 -0.014647288598825164 -4.339196703653082 -14.78418201732304 -3.8801394420499618 0.0017348490163422714 -0.006415487688796887 -0.006920619290216408 0.03222106728405369 -10.707000670282516 0.007329501033771929 
0.02567608865210866 -0.024838133441746083 0.025891291091630044 0.009933244473845864 0.036326396436293464 0.03490435605889013 2.92357115754233 3.836303133886034 -1.8707204358677982 -0.8628953791314646 3.5334987279277428 0.38646369056125396 -0.6923548408608412 -0.7519814831139768 -0.2799687680822986 -0.20310091921318224 0.03018306670332785 -0.5151523470907383 -0.16873555026384846 11.294073963569579 -0.6549281155139505 0.19815515026948546 -0.5595839049177332 -1.3571420392085924 0.48419831944488534 -16.547455709381154 -0.11580470949545664 -6.554411277593723 2.7663736441181848 -15.89654544881439 77.37196367214253 5.629578876961012 4.940401552440013 12.188950044695776 4.8477101600063275 89.83072845801887 6.349261779127242 -0.161690899162539 -1.580530779513207 4.515782635505251 -0.11737678645052158 -1.5656937876436432 -0.03344028449632338 0.009087790932343937 -56.23155204441016 -0.033577649213905596 0.028813611753853836 -56.20516721568873 -38.779392578920394 -0.04639630802486029 -0.031311837471213896 -0.035477391229036266 -0.00776519973178842 0.0006080974632707243 -0.026219020788319412 0.023808586872167994 0.037582269231665265 -36.6553393487757 0.010018960339501448 0.030237781168318448 -0.02021205977338213 -0.039732691724113256 -0.043331100657705714 0.004957597292717253 0.019717627115118274 0.008027434802560435 -19.729206694268843 -0.03925800066435999 0.02329913963411293 -0.026525902872726978 -0.013994880147529016 -0.006305432009057911 -0.020304196643090352 -0.006128504542191726 0.035321903205486185 24.067253851181345 -0.034783885498173524 0.013058040804875347 28.860319579828786 -0.03434682522838934 0.011901457473186477 28.821579858513086 -0.031645037986875096 -0.021964329146763533 7.923821697461245 2.0466694569128068 12.9665509448026 -72.35478017785806 26.08720761586107 -14.879760400072188 -30.36370651308279 6.410166995056667 -87.68211012919394 -13.964024015236232 -8.300274707436223 5.067589459842518 -0.5118974569800648 0.07609671089312044 -8.119302134686178 -0.023889448712766905 0.04302590409335495 44.52022388699258 0.0385683688235902 0.03475815699251436 44.57643869483404 12.503595855289534 -0.0059973995072882865 0.01576013057225365 0.03275206669361754 -0.01577908562252779 0.01622461509139533 0.006978832936881419 0.009008947921168275 -0.014533651872348823 11.130650473407737 0.012765752805818402 0.015113281441429472 -0.0389557630860815 0.004020979277860724 0.01921824348716636 0.024259258436906045 -0.02870106764617922 0.016832596211425348 4.7556705514234245 -0.035149716550751074 -0.028077509446462937 0.036701061453715135 -0.03398037257789226 0.01644648652160881 0.02485738762915494 0.04034211102474502 -0.017459282768146598 -5.610041375022761 0.007274591953547289 -0.02085262434782971 -6.707262880101667 0.00015557310700331815 0.03727483271120407 -6.7225098181840535 -0.03693606361079965 -0.035978067220279776 -0.0018681556190143027 0.017469305287377883 -0.023135409683183623 8.083548801338258 3.5189808836302627 -19.245103582106143 0.048129649902433985 10.37771827379971 -0.004811723418154591 -5.638551277244659 -15.649075866907944 3.146472408840657 -0.03215103838545573 0.015088372907159243 -0.01430273201853578 -0.024574725884585317 4.72536083911888 -0.0005204879654855869 12.46186460659312 -8.271869992123321 6.883599060399607 -0.049411239223636466 46.37692318288794 -0.024531403450187953 -4.368769476924204 -14.784696990926125 -3.808421680844357 -0.01251750846888809 -0.006757255648153391 -0.006394602320815636 -0.02396098675254786 -10.769292271433596 -0.0028515905123241586 
